<svg id="Logo" xmlns="http://www.w3.org/2000/svg" viewBox="0 0 1551.4 138.5"><defs><style>.cls-1{fill:#1d140f;}.cls-2{fill:#fff;}</style></defs><title>flowertown_logo</title><path class="cls-1" d="M222.77,17h83.06V29.13H235.94V70.66h62.8V82.81h-62.8v49.63H222.77Z" transform="translate(-3.7 -5.68)"/><path class="cls-1" d="M331.16,17h13.16V120.29h64.83v12.15h-78Z" transform="translate(-3.7 -5.68)"/><path class="cls-1" d="M487.3,132.62A56.7,56.7,0,0,1,464.06,128,55,55,0,0,1,434.5,97.07a60,60,0,0,1-4.08-22v-.32a59.65,59.65,0,0,1,4.16-22.05,58,58,0,0,1,76.28-31.15,55,55,0,0,1,29.56,30.91,60,60,0,0,1,4.08,22,.21.21,0,0,1,0,.32,59.62,59.62,0,0,1-4.16,22,56,56,0,0,1-53,35.79Zm.51-11.53a43.11,43.11,0,0,0,17.71-3.61,41.85,41.85,0,0,0,13.86-9.85,46.48,46.48,0,0,0,9-14.58,48.73,48.73,0,0,0,3.29-18v-.32a49.26,49.26,0,0,0-3.29-18,44.08,44.08,0,0,0-23.23-24.6,42.35,42.35,0,0,0-17.71-3.68,42.87,42.87,0,0,0-17.7,3.61,41.51,41.51,0,0,0-13.86,9.85,46.07,46.07,0,0,0-9.05,14.57,48.33,48.33,0,0,0-3.29,17.95v.32a48.94,48.94,0,0,0,3.29,18,44.18,44.18,0,0,0,23.23,24.59A42.12,42.12,0,0,0,487.81,121.09Z" transform="translate(-3.7 -5.68)"/><path class="cls-1" d="M565.06,17h14.18l33,96.17L643.8,17h10.94l31.56,96.17,33-96.17H733L692,132.44H680.41L649,39.57l-31.61,92.87H606Z" transform="translate(-3.7 -5.68)"/><path class="cls-1" d="M756.58,17h84.08V29.13H769.75v39.5h62.8V80.79h-62.8V121.3h70.91v11.14H756.58Z" transform="translate(-3.7 -5.68)"/><path class="cls-1" d="M868,17h49.53a54.8,54.8,0,0,1,19,3.06,37.12,37.12,0,0,1,13.75,8.49,29.53,29.53,0,0,1,6.57,10.06,33.92,33.92,0,0,1,2.31,12.7v.88A33.93,33.93,0,0,1,956.87,65a29.25,29.25,0,0,1-6.49,9.84,35,35,0,0,1-9.93,6.87A47.69,47.69,0,0,1,928,85.59l35.31,46.85H947.35L914,87.88H881.17v44.56H868Zm48,58.75a42,42,0,0,0,12-1.64,29.3,29.3,0,0,0,9.5-4.68A21.6,21.6,0,0,0,943.75,62,21.29,21.29,0,0,0,946,52.1v-.33q0-10.67-7.83-16.65t-22-6h-36V75.72Z" transform="translate(-3.7 -5.68)"/><path class="cls-1" d="M1017.92,29.13H978.41V17h91.17V29.13h-38.49V132.44h-13.17Z" transform="translate(-3.7 -5.68)"/><path class="cls-1" d="M1147.73,132.62a56.75,56.75,0,0,1-23.25-4.64,55,55,0,0,1-29.55-30.91,60,60,0,0,1-4.08-22v-.32A59.65,59.65,0,0,1,1095,52.73a58,58,0,0,1,76.29-31.15,55,55,0,0,1,29.55,30.91,59.75,59.75,0,0,1,4.08,22,.2.2,0,0,1,0,.32,59.41,59.41,0,0,1-4.16,22,56,56,0,0,1-53,35.79Zm.51-11.53a43,43,0,0,0,17.7-3.61,41.75,41.75,0,0,0,13.86-9.85,46.12,46.12,0,0,0,9-14.58,48.53,48.53,0,0,0,3.29-18v-.32a49.05,49.05,0,0,0-3.29-18,44.08,44.08,0,0,0-23.23-24.6,42.27,42.27,0,0,0-17.7-3.68,42.91,42.91,0,0,0-17.71,3.61,41.61,41.61,0,0,0-13.86,9.85,46.44,46.44,0,0,0-9,14.57A48.52,48.52,0,0,0,1104,74.46v.32a49.14,49.14,0,0,0,3.28,18,44.27,44.27,0,0,0,23.23,24.59A42.17,42.17,0,0,0,1148.24,121.09Z" transform="translate(-3.7 -5.68)"/><path class="cls-1" d="M1225.63,17h14.19l33,96.17L1304.37,17h10.94l31.57,96.17,33-96.17h13.69l-40.94,115.47H1341l-31.39-92.87L1278,132.44h-11.46Z" transform="translate(-3.7 -5.68)"/><path class="cls-1" d="M1417,17h9.66l75.42,92.54V17h13.17V132.44h-10.54l-74.54-94.67v94.67H1417Z" transform="translate(-3.7 -5.68)"/><path class="cls-2" d="M1538.9,17.8v9.11h-2V17.8h-3v-2h8.1v2Zm14.18,9.11v-7l-3.3,6h-1.53l-3.28-6v7h-2V15.77h2.63l3.44,7.08,3.45-7.08h2.63V26.91Z" transform="translate(-3.7 -5.68)"/><path class="cls-1" d="M125,5.68,107.3,37.93l0,46.8a227.35,227.35,0,0,0,39.53,9V33.63Z" transform="translate(-3.7 -5.68)"/><path class="cls-1" d="M38.42,32.29V52.18c4.54,3,6.5,4.25,11.14,7V34.39L43.4,22.94Z" transform="translate(-3.7 -5.68)"/><path class="cls-1" d="M54.63,35.17V61.84c6.51,3.71,11.55,6.36,18.23,9.47v-34l-10.13-16Z" transform="translate(-3.7 -5.68)"/><path class="cls-1" d="M26.27,29.34V43.68c3.06,2.16,5.57,3.91,8.1,5.62v-18l-4.51-7.94Z" transform="translate(-3.7 -5.68)"/><path class="cls-1" d="M70.17,115,102.9,92.7c3.79,1.37,7.59,2.62,11.42,3.8a249.39,249.39,0,0,0,29.2,7.12S100,131.11,95.6,133.26c-4.17,2-42.43,10.2-45.74,10.92Z" transform="translate(-3.7 -5.68)"/><path class="cls-1" d="M66.37,111.67C67.59,111,98.26,91,98.26,91c-5.62-2.14-11.17-4.5-16.69-7-2.79-1.3-5.93-2.79-8.69-4.18l-24,16L32.05,116.24Z" transform="translate(-3.7 -5.68)"/><path class="cls-1" d="M32.73,77.86,51.89,68c1.65,1,3.14,1.91,4.8,2.9,3.82,2.25,7.85,4.52,11.74,6.57L45.51,92.1,21.06,94.42Z" transform="translate(-3.7 -5.68)"/><path class="cls-1" d="M21.32,64.06l13.59-6.83c1.14.82,2.29,1.59,3.43,2.38,3.19,2.23,6.15,4.21,9.38,6.28l-18,8.82L13,75Z" transform="translate(-3.7 -5.68)"/><path class="cls-1" d="M13.63,52.25l9.25-4.56c1,.79,1.49,1.13,2.47,1.88,2.52,2,3.24,2.6,5.8,4.46L18.89,60.2,8,59.81Z" transform="translate(-3.7 -5.68)"/><path class="cls-1" d="M4.1,19.62S28.34,34.52,22,41.16l-9.87-7.61,7.17,10.88S.78,46.74,4.1,19.62" transform="translate(-3.7 -5.68)"/><path class="cls-1" d="M76.91,74.71V37.22L88.53,15.46,102.24,37.8l0,46.33a218.37,218.37,0,0,1-25.28-9.86" transform="translate(-3.7 -5.68)"/></svg>